<svg width="270" height="204" viewBox="0 0 270 204" fill="none" xmlns="http://www.w3.org/2000/svg">
<path d="M163.212 166.932L169.384 198.257C169.988 201.181 167.575 203.919 164.419 203.919H109.334V199.696H124.138C126.551 199.696 128.454 197.7 128.175 195.38L124.834 166.932H163.212Z" fill="#E4E6FE"/>
<path d="M158.619 166.933L164.791 198.257C165.394 201.181 162.981 203.919 159.825 203.919H104.74V199.696H119.498C121.911 199.696 123.813 197.7 123.535 195.38L120.194 166.933H158.619Z" fill="#E4E6FE"/>
<path d="M151.982 199.696H104.74V203.919H151.982V199.696Z" fill="#F3F4FF"/>
<path d="M169.431 199.696C169.153 202.016 167.065 203.919 164.419 203.919H151.982V199.696H163.491C164.28 199.696 164.93 199 164.791 198.257L158.619 166.932H163.213L169.385 198.257C169.478 198.721 169.478 199.232 169.431 199.696Z" fill="#E4E6FE"/>
<path d="M67.2424 170.83H218.065C223.309 170.83 227.532 166.607 227.532 161.363V52.539C227.532 47.295 223.309 43.072 218.065 43.072H67.2424C61.9984 43.072 57.7754 47.295 57.7754 52.539V161.363C57.7754 166.607 62.0448 170.83 67.2424 170.83Z" fill="#E4E6FE"/>
<path d="M50.2578 54.1633V159.739C50.2578 165.865 55.2233 170.83 61.3491 170.83H208.923C215.049 170.83 220.014 165.865 220.014 159.739V54.1633C220.014 48.0376 215.049 43.072 208.923 43.072H61.3491C55.2233 43.1184 50.2578 48.0376 50.2578 54.1633Z" fill="#E4E6FE"/>
<path d="M50.2578 54.1633V148.694H220.014V54.1633C220.014 48.0376 215.049 43.072 208.923 43.072H61.3491C55.2233 43.1184 50.2578 48.0376 50.2578 54.1633Z" fill="#B4B7DB"/>
<path d="M154.533 60.6602C146.922 87.0193 116.711 113.842 86.9641 93.2378C80.0959 88.4579 75.8265 76.9954 77.3579 68.5029C78.1468 64.0015 80.0959 59.732 82.9267 56.2051C85.8968 52.539 89.7949 49.8938 93.7859 47.6198C102 42.9327 112.952 38.1064 114.623 27.2472C115.365 22.3745 112.349 17.6874 113.88 12.8611C115.226 8.68447 118.938 5.34317 122.512 3.11564C128.777 -0.828943 137.176 -1.33942 142.884 3.39408C143.905 3.34768 144.88 3.57971 145.854 3.85815C160.194 7.89555 157.595 50.0794 154.533 60.6602Z" fill="#312B61"/>
<path d="M157.596 26.2726C156.25 19.4044 154.858 10.6799 148.964 6.31768C148.918 6.27127 148.871 6.36409 148.918 6.36409C154.255 10.5407 155.6 18.105 156.853 24.5092C158.385 32.0735 159.081 39.6842 158.199 47.3878C156.482 61.8667 149.614 75.4639 139.033 85.2094C133.557 90.2213 127.292 94.0731 120.517 96.8111C120.331 96.9039 120.424 97.2288 120.656 97.1359C133.186 92.4953 144.045 82.9818 150.82 71.1945C154.579 64.6511 157.132 57.3188 158.292 49.8009C159.545 41.9582 159.127 34.069 157.596 26.2726Z" fill="#312B61"/>
<path d="M107.291 97.4609C96.7102 98.4355 85.1549 95.0014 79.2148 85.3023C76.5696 80.9865 75.2238 75.6961 75.6415 70.5913C76.0591 64.9761 78.7971 60.057 82.7881 56.2516C87.568 51.7037 93.5081 48.3624 99.2161 45.346C99.2625 45.2996 99.2161 45.2532 99.1697 45.2532C89.4707 50.2651 77.3585 56.53 75.363 68.7815C73.5995 79.6871 79.7253 90.175 89.0994 94.9085C94.6683 97.693 101.212 98.7603 107.337 97.7858C107.523 97.7394 107.523 97.4609 107.291 97.4609Z" fill="#312B61"/>
<path d="M126.133 1.677C122.652 3.39406 119.172 5.25033 116.248 7.98834C113.835 10.2159 110.633 13.7428 111.283 17.4089C111.654 19.4508 112.536 21.3999 113.092 23.3954C113.742 25.855 113.974 28.3146 113.417 30.8205C112.396 35.322 110.076 40.0091 106.828 43.1648C106.735 43.2576 106.828 43.3968 106.92 43.304C109.844 40.798 111.654 37.3175 113 33.6513C113.742 31.7023 114.253 29.6604 114.206 27.572C114.16 25.4837 113.649 23.4418 113 21.4463C112.211 18.9404 111.051 16.5736 112.211 13.9284C113.092 11.8865 114.624 10.0302 116.202 8.54522C119.125 5.7144 122.652 3.62609 126.179 1.76982C126.226 1.76982 126.226 1.677 126.133 1.677Z" fill="#312B61"/>
<path d="M125.669 88.0403C125.483 88.8292 125.158 89.8966 124.787 91.196C122.049 100.988 115.181 123.681 111.886 128.136C108.962 132.034 94.5296 142.522 92.4877 141.547C87.7542 139.366 83.7168 130.595 83.7168 127.486C83.7168 127.115 83.7632 126.836 83.856 126.651C84.5985 125.305 96.2931 113.935 97.0356 111.244C97.7317 108.552 108.312 84.6526 113.046 74.1183C116.526 66.4147 124.74 60.2426 128.685 55.3699C128.685 55.4163 129.474 73.7934 125.669 88.0403Z" fill="#FFFFFD"/>
<path d="M118.569 1.58423C118.429 1.63064 118.29 1.72345 118.197 1.76986C118.336 1.72345 118.476 1.67704 118.569 1.58423Z" fill="#C5421E"/>
<path d="M134.81 52.5853C131.701 53.1886 126.411 58.479 124.508 64.8368C121.027 76.7633 116.433 86.4159 117.129 91.7063C117.825 96.9967 119.357 100.848 122.327 104.515C122.977 105.304 122.884 123.356 122.652 126.697H161.819C161.819 126.697 159.267 109.944 159.406 103.586C159.545 97.2288 161.355 70.3128 157.503 66.1361C151.099 59.2215 142.235 51.1467 134.81 52.5853Z" fill="#B4B7DB"/>
<path d="M149.801 101.637C146.877 103.076 144.093 104.19 140.844 104.282C137.735 104.375 134.44 103.726 131.702 102.148C131.609 102.101 131.517 102.287 131.934 102.565C137.41 106.139 144.696 106.185 149.894 101.869C150.079 101.684 149.94 101.544 149.801 101.637Z" fill="#3F4680"/>
<path d="M133.512 104.05C130.774 103.169 127.804 103.354 125.019 103.54C124.973 103.54 124.973 103.633 125.019 103.633C127.896 103.493 130.681 104.05 133.512 104.282C133.604 104.282 133.651 104.097 133.512 104.05Z" fill="#3F4680"/>
<path d="M145.624 56.3904C145.624 56.3904 139.034 69.1987 134.857 68.9666C129.706 68.6882 127.479 58.8035 127.479 58.8035C128.175 57.4577 128.546 55.8799 128.824 54.6733C128.917 54.302 129.01 53.9772 129.056 53.6988C129.103 53.5131 129.149 53.1419 129.196 52.7242C129.196 52.6314 129.196 52.5386 129.196 52.3994C129.242 51.6569 129.196 50.7287 129.149 49.6614C129.103 48.5012 129.01 47.2018 128.964 45.856C128.639 40.9369 128.128 35.4608 128.035 34.4863C128.035 34.3935 128.035 34.3471 128.035 34.3471L139.266 33.5118L140.612 33.4189C140.612 33.4189 140.612 33.4654 140.612 33.5582C140.612 33.8366 140.658 34.4399 140.704 35.3216C140.704 35.6001 140.751 35.8785 140.751 36.2034C140.751 36.621 140.797 37.0851 140.844 37.5956C140.89 38.0132 140.89 38.4773 140.937 38.9414C140.937 39.2662 140.983 39.5911 140.983 39.9159C141.076 41.5402 141.215 43.3036 141.354 44.9743C141.447 46.1808 141.586 47.341 141.679 48.4084C141.818 49.8934 142.004 51.1464 142.189 51.9817C142.282 52.353 142.329 52.585 142.422 52.7706C142.654 53.3275 143.025 53.7916 143.535 54.3484C144.092 54.9053 144.788 55.555 145.624 56.3904Z" fill="#F7D2BA"/>
<path d="M119.914 24.648C119.914 24.648 118.058 21.6316 115.831 22.5597C113.093 23.7199 114.531 33.3725 118.151 33.8366C119.729 34.0222 120.286 32.862 120.286 32.862L119.914 24.648Z" fill="#F7D2BA"/>
<path d="M116.109 23.9521C116.063 23.9057 116.062 23.9521 116.062 23.9985C117.733 26.8757 118.8 29.7994 119.914 32.8622C119.961 33.0478 120.239 33.0014 120.239 32.8158C120.1 29.5673 118.336 26.2724 116.109 23.9521Z" fill="#E5B9A1"/>
<path d="M144.418 38.4776C141.726 43.1183 135.461 45.9491 130.356 45.5314C125.948 45.1602 120.657 40.0554 119.079 34.7186C118.059 31.2381 117.548 14.346 119.868 9.38048C121.725 5.43589 128.407 1.53771 134.719 2.0946C140.751 2.65148 146.877 7.66342 148.084 11.8865C149.894 18.1514 147.48 33.1872 144.418 38.4776Z" fill="#F7D2BA"/>
<path d="M134.022 27.6182C133.976 28.2679 134.487 28.8247 135.136 28.8711C135.786 28.9176 136.343 28.4071 136.389 27.7574C136.436 27.1077 135.925 26.5508 135.275 26.5044C134.626 26.458 134.069 26.9685 134.022 27.6182Z" fill="#4C3B2E"/>
<path d="M137.549 27.1077C137.549 27.3861 137.364 27.6646 137.039 27.7574C136.9 27.8038 136.76 27.8038 136.575 27.8038C136.389 27.7574 136.25 27.6646 136.157 27.5717C135.972 27.3397 135.832 27.1541 135.693 26.9685C135.554 26.7828 135.368 26.69 135.09 26.5972C135.322 26.5044 135.647 26.5972 135.879 26.7828C136.111 26.9685 136.25 27.2005 136.389 27.3397C136.528 27.4789 136.668 27.5253 136.9 27.5253C137.178 27.4325 137.41 27.2933 137.549 27.1077Z" fill="#4C3B2E"/>
<path d="M137.084 26.2722C137.177 26.5043 137.131 26.8291 136.899 27.0147C136.806 27.1075 136.667 27.2004 136.528 27.2468C136.388 27.2932 136.203 27.2468 136.064 27.2004C135.832 27.1075 135.646 26.9683 135.46 26.8755C135.275 26.7827 135.089 26.7363 134.811 26.7827C134.996 26.5971 135.275 26.5507 135.553 26.5971C135.832 26.6435 136.017 26.7827 136.203 26.8291C136.388 26.9219 136.528 26.8755 136.713 26.7827C136.852 26.6899 136.992 26.5043 137.084 26.2722Z" fill="#4C3B2E"/>
<path opacity="0.3" d="M130.171 30.4026C129.985 30.8203 129.15 31.2379 128.779 31.2379C128.407 31.1915 127.665 30.6811 127.526 30.217C127.386 29.7993 129.103 22.3742 129.335 22.4206C129.614 22.4206 130.356 29.9849 130.171 30.4026Z" fill="url(#paint0_linear)"/>
<path d="M129.242 37.5491C130.124 37.6884 130.959 37.7348 131.795 37.5956C132.212 37.5491 132.63 37.4563 133.001 37.3171C133.419 37.1779 133.79 36.9923 134.208 36.8066C133.883 37.1315 133.558 37.4099 133.14 37.5956C132.955 37.6884 132.723 37.7812 132.491 37.8276C132.259 37.874 132.073 37.9204 131.841 37.9668C131.377 38.0132 130.959 38.0132 130.495 37.9204C130.031 37.9204 129.613 37.7812 129.242 37.5491Z" fill="#E5B9A1"/>
<path d="M126.132 19.9147C125.158 19.1722 123.487 19.3115 122.188 19.6363C120.564 20.054 119.589 21.1213 119.682 21.539C119.775 21.8638 120.981 21.2605 123.209 21.1213C124.137 21.0749 125.436 21.4926 126.04 21.1677C126.504 20.9357 126.55 20.2396 126.132 19.9147Z" fill="#312B61"/>
<path d="M133.697 20.4251C134.765 19.8218 136.435 20.1466 137.642 20.6571C139.173 21.2604 140.055 22.467 139.87 22.8846C139.73 23.1631 138.617 22.467 136.435 22.0493C135.507 21.8637 134.208 22.1421 133.605 21.7245C133.187 21.3532 133.233 20.6571 133.697 20.4251Z" fill="#312B61"/>
<path d="M124.879 27.0147C124.833 27.6644 124.276 28.1749 123.626 28.1285C122.977 28.0821 122.466 27.5252 122.513 26.8755C122.559 26.2258 123.116 25.7153 123.766 25.7617C124.415 25.8081 124.926 26.365 124.879 27.0147Z" fill="#4C3B2E"/>
<path d="M121.398 26.0402C121.538 26.2722 121.723 26.4115 121.909 26.4579C122.141 26.5043 122.28 26.4579 122.466 26.365C122.651 26.2258 122.791 26.0402 123.069 25.901C123.301 25.7618 123.626 25.7153 123.858 25.8546C123.58 25.901 123.394 25.9938 123.208 26.1794C123.023 26.3186 122.883 26.5507 122.698 26.7363C122.605 26.8291 122.419 26.9219 122.28 26.9219C122.095 26.9219 121.955 26.9219 121.816 26.8291C121.538 26.5971 121.398 26.3186 121.398 26.0402Z" fill="#4C3B2E"/>
<path d="M122.002 25.2979C122.048 25.5299 122.141 25.7155 122.28 25.8547C122.42 25.994 122.559 25.994 122.744 25.9475C122.93 25.9011 123.162 25.8083 123.441 25.7619C123.719 25.7155 123.997 25.8547 124.137 26.0404C123.905 25.9939 123.673 25.994 123.487 26.0868C123.301 26.1332 123.116 26.2724 122.837 26.3188C122.698 26.3652 122.559 26.3652 122.373 26.3188C122.234 26.2724 122.095 26.1796 122.002 26.0404C121.909 25.8083 121.863 25.4835 122.002 25.2979Z" fill="#4C3B2E"/>
<path d="M134.578 34.9971C134.531 35.09 134.439 35.2292 134.346 35.322C133.789 35.9717 132.768 36.5286 131.608 36.6678C130.494 36.8534 129.334 36.6214 128.591 36.1573C128.452 36.0645 128.359 36.0181 128.267 35.9253C127.617 35.322 127.617 34.2082 128.267 33.837C129.148 33.3265 130.216 33.8834 131.144 33.7442C132.072 33.6049 132.954 32.7696 133.928 33.0017C134.717 33.1873 135.042 34.2546 134.578 34.9971Z" fill="#4C3B2E"/>
<path d="M134.346 35.3222C133.789 35.9719 132.768 36.5288 131.608 36.668C130.494 36.8536 129.334 36.6216 128.592 36.1575C129.056 35.415 130.03 34.7653 131.283 34.5797C132.583 34.3941 133.697 34.7189 134.346 35.3222Z" fill="#E58A76"/>
<g opacity="0.5">
<g opacity="0.5">
<path opacity="0.5" d="M120.481 31.3989C121.645 31.2124 122.437 30.1175 122.251 28.9534C122.064 27.7893 120.969 26.9968 119.805 27.1833C118.641 27.3698 117.848 28.4647 118.035 29.6288C118.221 30.7929 119.316 31.5854 120.481 31.3989Z" fill="#E58A76"/>
</g>
</g>
<g opacity="0.5">
<g opacity="0.5">
<path opacity="0.5" d="M142.514 30.1706C142.606 31.3772 141.678 32.3981 140.472 32.4445C139.265 32.5374 138.244 31.6092 138.198 30.4026C138.105 29.1961 139.033 28.1751 140.24 28.1287C141.4 28.0823 142.421 28.964 142.514 30.1706Z" fill="#E58A76"/>
</g>
</g>
<path d="M148.036 25.994C146.597 25.8548 145.112 19.6827 144.556 14.4387C144.556 14.4387 144.556 19.6363 144.091 20.0539C143.627 20.4252 135.692 17.0375 133.371 9.6588C133.371 9.6588 134.81 15.9237 134.207 16.2022C133.604 16.4806 128.916 16.0629 125.111 11.3294C125.111 11.3294 127.107 15.1348 126.642 15.274C126.225 15.4132 122.559 15.0884 120.934 13.5106C120.934 13.5106 118.475 24.7874 117.732 23.488C117.361 22.8383 117.175 11.0046 119.31 8.08096C121.445 5.15733 127.988 1.16634 134.3 1.67681C140.657 2.18729 147.154 6.54954 148.732 10.5869C150.31 14.5779 149.15 26.0868 148.036 25.994Z" fill="#312B61"/>
<path d="M146.273 25.5763C146.273 25.5763 148.501 22.8383 150.589 24.0449C153.141 25.5299 150.496 34.9041 146.876 34.9505C145.299 34.9505 144.881 33.6975 144.881 33.6975L146.273 25.5763Z" fill="#F7D2BA"/>
<path d="M150.125 25.3907C150.125 25.3443 150.171 25.3907 150.125 25.3907C148.129 28.0823 146.737 30.8204 145.206 33.744C145.113 33.8832 144.881 33.8368 144.881 33.6512C145.484 30.4491 147.619 27.3862 150.125 25.3907Z" fill="#E5B9A1"/>
<path d="M122.651 126.697H161.819C161.819 126.697 172.632 146.838 176.019 157.233C182.795 178.07 184.14 200.484 184.14 200.484H114.066C114.066 200.531 112.117 163.591 122.651 126.697Z" fill="#312B61"/>
<path d="M193.005 200.53H154.348L153.931 194.59L143.768 54.5344C143.768 54.5344 159.5 63.3053 160.985 68.6885C161.959 72.4011 161.541 84.6061 161.495 93.9803C161.449 98.2961 161.495 102.009 161.82 104.004C162.145 106.232 166.275 119.226 171.38 135.004C172.076 137.185 172.818 139.413 173.561 141.687C182.378 168.788 193.005 200.53 193.005 200.53Z" fill="#FFFFFD"/>
<path d="M164.883 115.884C164.883 115.884 160.242 128.507 159.825 129.481C159.407 130.41 157.319 133.287 156.808 134.261C156.298 135.236 156.205 135.839 156.205 135.839C156.205 135.839 159.5 143.079 163.352 145.909C163.352 145.909 165.718 142.058 166.229 140.851C166.739 139.645 167.668 134.029 167.668 134.029L176.392 121.917C176.346 121.917 170.684 115.652 164.883 115.884Z" fill="#F7D2BA"/>
<path d="M193.98 102.566C193.98 102.566 193.934 102.566 193.98 102.566C190.082 116.813 177.923 141.64 177.088 141.64C176.02 141.64 170.962 140.48 167.714 137.417C165.393 135.236 162.98 131.106 161.774 128.6C161.309 127.625 161.031 126.883 161.031 126.604C161.031 125.676 169.988 103.215 170.73 102.612C171.426 102.055 155.323 88.3187 153.142 86.3696C150.961 84.3742 143.675 67.25 144.464 54.8594C144.464 54.8594 151.75 57.2725 155.833 60.0569C168.874 68.9207 192.077 88.7828 194.769 93.6091C195.558 95.0477 195.094 98.3426 193.98 102.566Z" fill="#FFFFFD"/>
<path d="M161.542 93.7483C161.124 93.2378 158.711 91.66 158.061 91.1959C157.968 91.1495 157.968 91.1959 158.015 91.2888C158.525 91.7992 160.335 93.4235 161.449 93.8875C161.635 94.0268 161.681 93.9339 161.542 93.7483Z" fill="#D3D6F4"/>
<path d="M164.789 116.023C163.908 117.555 161.402 124.562 160.938 126.419C160.938 126.511 161.03 126.558 161.077 126.465C161.866 124.887 164.65 117.88 165.021 116.023C165.068 115.838 164.928 115.838 164.789 116.023Z" fill="#D3D6F4"/>
<path d="M143.812 54.488C143.766 54.4416 143.673 54.488 143.72 54.5344C145.994 58.5718 154.904 71.3801 154.765 71.5657C154.532 71.8442 150.17 75.8351 148.407 77.3202C148.221 77.4594 148.5 77.7378 148.685 77.5986C150.681 75.8816 153.465 73.422 155.275 71.6121C155.553 71.4265 146.783 59.0358 143.812 54.488Z" fill="#D3D6F4"/>
<path d="M156.853 87.0189C156.807 86.6013 150.403 78.9905 148.593 77.3663C148.453 77.2735 148.314 77.4591 148.407 77.5983C150.031 79.3618 156.203 87.1117 156.296 87.3438C156.389 87.5758 150.774 123.912 149.706 133.658C149.66 133.89 150.031 133.89 150.031 133.658C151.145 123.077 157.039 88.0399 156.853 87.0189Z" fill="#D3D6F4"/>
<path d="M128.685 55.4172C128.685 55.4172 118.521 70.7315 117.779 78.8527C117.036 86.9739 111.932 200.532 111.932 200.532H128.685V55.4172Z" fill="#FFFFFD"/>
<path d="M128.638 55.4162C128.685 55.3698 128.731 55.4162 128.731 55.4626C127.107 59.5464 120.1 73.2364 120.239 73.4221C120.424 73.7005 124.137 77.4131 125.622 78.8053C125.761 78.9445 125.576 79.2229 125.436 79.0837C123.766 77.5059 121.399 75.2319 119.868 73.5149C119.589 73.2364 126.504 60.0105 128.638 55.4162Z" fill="#D3D6F4"/>
<path d="M119.264 88.6436C119.31 88.2259 124.044 80.476 125.436 78.8053C125.529 78.7125 125.668 78.8981 125.575 78.991C124.369 80.8008 119.774 88.69 119.728 88.922C119.682 89.1541 126.411 124.052 127.756 133.565C127.803 133.797 127.524 133.797 127.478 133.565C126.132 123.263 119.217 89.6645 119.264 88.6436Z" fill="#D3D6F4"/>
<path d="M116.851 90.9644C116.712 93.2847 116.572 95.6051 116.387 97.879C116.201 96.7652 116.062 95.6515 115.876 94.5377C115.876 94.4449 115.737 94.4913 115.737 94.5377C115.923 96.2084 116.016 97.9254 116.201 99.5961C116.201 99.6425 116.201 99.6425 116.248 99.6889C116.108 101.824 115.969 103.958 115.83 106.047C115.598 110.919 115.366 115.746 115.134 120.618C114.716 130.503 114.113 140.388 113.881 150.272C113.881 150.458 114.159 150.458 114.159 150.272C114.855 140.388 115.227 130.503 115.737 120.618C115.969 115.746 116.248 110.919 116.48 106.047C116.712 101.035 116.712 95.9763 116.944 90.9644C116.99 90.8716 116.851 90.8716 116.851 90.9644Z" fill="#D3D6F4"/>
<path d="M167.249 149.112C165.811 148.137 158.989 143.172 154.209 131.709C154.162 131.57 153.93 131.616 153.977 131.802C155.323 135.514 157.04 138.949 159.267 142.197C161.402 145.26 163.629 147.766 167.11 149.344C167.249 149.39 167.388 149.205 167.249 149.112Z" fill="#D3D6F4"/>
<path d="M126.503 155.098H88.6348L78.3789 104.886H116.247L126.503 155.098Z" fill="#3F4680"/>
<path d="M105.388 108.134H89.4244L88.125 101.777H104.135L105.388 108.134Z" fill="#D3D6F4"/>
<path d="M102.278 104.004H91.0942L90.166 99.5491H101.396L102.278 104.004Z" fill="#D3D6F4"/>
<path d="M86.8256 142.336C88.4498 141.965 96.7567 136.442 96.9423 134.957C97.1743 133.194 88.7747 137.835 88.6819 137.742C88.5891 137.649 97.36 134.029 97.1743 132.266C97.0351 130.734 87.4753 135.282 87.4753 135.282C87.4753 135.282 96.7567 131.291 96.5711 129.945C96.3854 128.414 86.9184 131.987 86.9184 131.848C86.9184 131.848 93.7866 129.481 93.9723 128.182C94.1115 127.022 87.8466 128.692 85.5726 128.925C83.2987 129.11 81.2568 133.612 81.164 135.236C81.0247 136.814 84.7373 142.8 86.8256 142.336Z" fill="#F7D2BA"/>
<path d="M148.501 58.1077C148.176 57.7828 147.48 57.8292 147.109 58.1541C146.645 56.2978 145.252 55.0912 143.535 54.2559C143.025 53.699 142.654 53.235 142.421 52.6781C142.329 52.4925 142.282 52.2604 142.189 51.8892C145.345 53.0029 147.805 54.9984 148.501 58.1077Z" fill="#D3D6F4"/>
<path d="M129.242 52.3997C129.242 52.4925 129.242 52.5853 129.242 52.7245C129.242 53.1422 129.195 53.5134 129.102 53.6991C129.01 53.9775 128.963 54.3023 128.87 54.6736C127.664 55.6481 126.736 57.0868 126.179 59.1751C124.833 64.3262 124.647 70.1271 124.647 75.5103C124.322 75.4175 123.951 75.3711 123.626 75.3711C123.534 75.3711 123.394 75.3711 123.302 75.3711C123.302 69.0597 122.837 57.5508 127.571 53.467C128.035 53.0958 128.592 52.7245 129.242 52.3997Z" fill="#D3D6F4"/>
<path d="M123.628 75.3711C123.999 75.3711 124.324 75.4175 124.649 75.5103V75.6495C124.649 76.6705 123.303 76.6705 123.303 75.6495V75.3711C123.396 75.3711 123.535 75.3711 123.628 75.3711Z" fill="#D3D6F4"/>
<path d="M147.249 58.9896C147.202 58.7112 147.156 58.4327 147.109 58.1543C147.434 57.8295 148.13 57.7831 148.502 58.1079C148.548 58.3863 148.594 58.6648 148.641 58.9896C148.734 60.0106 147.341 60.0106 147.249 58.9896Z" fill="#D3D6F4"/>
<path d="M127.293 78.9444C127.34 80.9399 125.715 82.6106 123.72 82.6106C121.724 82.657 120.1 81.0327 120.054 79.0372C120.007 77.1346 121.446 75.5567 123.302 75.3711C123.395 75.3711 123.534 75.3711 123.627 75.3711C123.998 75.3711 124.323 75.4175 124.648 75.5103C126.18 75.928 127.293 77.3202 127.293 78.9444Z" fill="#3F4680"/>
<path d="M121.492 79.0372C121.492 80.2438 122.513 81.2183 123.72 81.1719C124.926 81.1719 125.901 80.151 125.854 78.9444C125.854 77.7378 124.833 76.7633 123.627 76.8097C122.467 76.8561 121.492 77.8306 121.492 79.0372Z" fill="#E6EDF7"/>
<path d="M144.603 76.5776C143.303 92.1704 144.556 95.6973 146.088 97.1823C147.712 98.7601 149.986 99.3634 150.079 99.3634L150.357 98.2961L150.218 98.8065L150.357 98.2961C150.357 98.2961 148.269 97.7392 146.83 96.347C145.716 95.2796 144.371 92.0311 145.67 76.624L144.603 76.5776Z" fill="#D3D6F4"/>
<path d="M148.825 97.6926L148.408 98.9456C148.315 99.224 148.454 99.5025 148.732 99.5953L151.331 100.477C151.61 100.57 151.888 100.431 151.981 100.152L152.399 98.8992C152.491 98.6207 152.352 98.3423 152.074 98.2495L149.475 97.3677C149.196 97.2749 148.918 97.4142 148.825 97.6926Z" fill="#3F4680"/>
<path d="M154.395 75.2319C159.314 85.9519 161.124 91.9384 160.056 94.1659C159.174 95.9294 157.457 97.1823 157.411 97.1823L158.014 98.0641C158.107 98.0177 160.01 96.6719 161.031 94.63C162.33 91.9848 160.659 86.2303 155.369 74.7678L154.395 75.2319Z" fill="#D3D6F4"/>
<path d="M158.618 96.0224L159.453 97.0433C159.639 97.2754 159.592 97.6002 159.36 97.7859L157.226 99.5493C156.994 99.7349 156.669 99.6885 156.483 99.4565L155.648 98.4355C155.462 98.2035 155.509 97.8787 155.741 97.693L157.875 95.9296C158.107 95.7904 158.432 95.8368 158.618 96.0224Z" fill="#3F4680"/>
<path d="M155.833 75.7887C155.741 76.0207 155.509 76.1135 155.323 76.2063C155.137 76.2992 154.998 76.3456 154.859 76.2992C154.441 76.2992 154.116 75.9279 153.606 74.6749C152.492 71.9833 150.821 67.157 148.872 67.2962C146.923 67.6211 146.738 72.4938 146.413 75.4638C146.274 76.9024 146.042 77.5521 145.577 77.6914C145.438 77.7378 145.345 77.7378 145.206 77.7378C144.974 77.6914 144.696 77.6449 144.51 77.4129C144.324 77.1809 144.185 76.7168 144.232 75.8815C144.278 74.5357 144.974 69.895 145.531 68.0851C145.995 66.4609 147.387 65.2079 147.387 65.2079C147.619 65.1615 147.387 63.2588 147.155 61.7274C146.97 60.3352 146.691 58.7574 147.016 58.2933C147.062 58.2469 147.109 58.2005 147.155 58.1541C147.48 57.8292 148.176 57.7828 148.547 58.1077C148.965 58.4789 149.104 60.1032 149.244 61.4954C149.429 63.0732 149.661 64.9759 149.847 64.9295C149.847 64.9295 151.61 65.7184 152.492 67.2034C153.559 69.0133 155.137 72.7258 155.741 74.2108C155.973 75.0462 155.973 75.5102 155.833 75.7887Z" fill="#3F4680"/>
<path d="M90.2154 36.2504C100.237 36.2504 108.361 30.2459 108.361 22.8388C108.361 15.4318 100.237 9.42725 90.2154 9.42725C80.1941 9.42725 72.0703 15.4318 72.0703 22.8388C72.0703 30.2459 80.1941 36.2504 90.2154 36.2504Z" fill="#E4E6FE"/>
<path d="M100.1 31.888L109.01 34.1155L105.715 26.7832L100.1 31.888Z" fill="#E4E6FE"/>
<path d="M83.6725 22.8392C83.6725 23.8602 82.8372 24.7419 81.7699 24.7419C80.7489 24.7419 79.8672 23.9066 79.8672 22.8392C79.8672 21.8183 80.7025 20.9365 81.7699 20.9365C82.8372 20.9829 83.6725 21.8183 83.6725 22.8392Z" stroke="#FFFFFD" stroke-width="2" stroke-miterlimit="10"/>
<path d="M92.1179 22.8387C92.1179 23.8597 91.2825 24.7414 90.2152 24.7414C89.1942 24.7414 88.3125 23.9061 88.3125 22.8387C88.3125 21.8178 89.1478 20.936 90.2152 20.936C91.2825 20.9824 92.1179 21.8178 92.1179 22.8387Z" stroke="#FFFFFD" stroke-width="2" stroke-miterlimit="10"/>
<path d="M100.518 22.8387C100.518 23.8597 99.6829 24.7414 98.6156 24.7414C97.5482 24.7414 96.7129 23.9061 96.7129 22.8387C96.7129 21.8178 97.5482 20.936 98.6156 20.936C99.6829 20.936 100.518 21.8178 100.518 22.8387Z" stroke="#FFFFFD" stroke-width="2" stroke-miterlimit="10"/>
<path d="M55.641 105.304V83.5856C55.641 83.5856 53.4599 72.4479 45.942 73.2833C39.0738 74.0722 37.4495 83.2607 41.0692 90.8715C44.9674 99.0391 55.641 105.304 55.641 105.304Z" fill="#2BA7D5"/>
<path d="M55.6406 105.304V83.5856C55.6406 83.5856 57.8218 72.4479 65.3397 73.2833C72.2079 74.0722 73.8321 83.2607 70.2124 90.8715C66.3606 99.0391 55.6406 105.304 55.6406 105.304Z" fill="#2BA7D5"/>
<path d="M51.0007 92.1709V93.9344C51.0007 94.3056 50.7223 94.584 50.351 94.584H46.7313C46.36 94.584 46.0816 94.8625 46.0816 95.2337V98.8535C46.0816 99.2247 45.8031 99.5032 45.4319 99.5032H43.6684C43.2972 99.5032 43.0187 99.2247 43.0187 98.8535V95.2337C43.0187 94.8625 42.7403 94.584 42.369 94.584H38.7493C38.378 94.584 38.0996 94.3056 38.0996 93.9344V92.1709C38.0996 91.7996 38.378 91.5212 38.7493 91.5212H42.369C42.7403 91.5212 43.0187 91.2428 43.0187 90.8715V87.2054C43.0187 86.8341 43.2972 86.5557 43.6684 86.5557H45.4319C45.8031 86.5557 46.0816 86.8341 46.0816 87.2054V90.8251C46.0816 91.1964 46.36 91.4748 46.7313 91.4748H50.351C50.7223 91.5212 51.0007 91.7996 51.0007 92.1709Z" fill="#FFFFFD"/>
<path d="M198.76 135.004V136.768C198.76 137.139 198.482 137.417 198.111 137.417H194.491C194.12 137.417 193.841 137.696 193.841 138.067V141.687C193.841 142.058 193.563 142.336 193.192 142.336H191.428C191.057 142.336 190.778 142.058 190.778 141.687V138.067C190.778 137.696 190.5 137.417 190.129 137.417H186.509C186.138 137.417 185.859 137.139 185.859 136.768V135.004C185.859 134.633 186.138 134.354 186.509 134.354H190.129C190.5 134.354 190.778 134.076 190.778 133.705V130.085C190.778 129.714 191.057 129.435 191.428 129.435H193.192C193.563 129.435 193.841 129.714 193.841 130.085V133.705C193.841 134.076 194.12 134.354 194.491 134.354H198.111C198.436 134.354 198.76 134.633 198.76 135.004Z" stroke="#E4E6FE" stroke-miterlimit="10"/>
<path d="M91.5144 104.422V106.186C91.5144 106.557 91.2359 106.835 90.8647 106.835H87.245C86.8737 106.835 86.5953 107.114 86.5953 107.485V111.105C86.5953 111.476 86.3168 111.754 85.9456 111.754H84.1821C83.8108 111.754 83.5324 111.476 83.5324 111.105V107.485C83.5324 107.114 83.254 106.835 82.8827 106.835H79.263C78.8917 106.835 78.6133 106.557 78.6133 106.186V104.422C78.6133 104.051 78.8917 103.772 79.263 103.772H82.8827C83.254 103.772 83.5324 103.494 83.5324 103.123V99.503C83.5324 99.1317 83.8108 98.8533 84.1821 98.8533H85.9456C86.3168 98.8533 86.5953 99.1317 86.5953 99.503V103.123C86.5953 103.494 86.8737 103.772 87.245 103.772H90.8647C91.2359 103.772 91.5144 104.097 91.5144 104.422Z" stroke="#E4E6FE" stroke-miterlimit="10"/>
<path d="M266.33 88.7829H200.85C199.04 88.7829 197.555 87.2979 197.555 85.488V69.1064C197.555 67.2965 199.04 65.8115 200.85 65.8115H266.33C268.14 65.8115 269.625 67.2965 269.625 69.1064V85.488C269.625 87.2979 268.14 88.7829 266.33 88.7829Z" fill="#E4E6FE"/>
<path d="M216.675 77.274C216.675 79.4087 215.7 81.3578 214.123 82.5643C212.962 83.4925 211.477 84.0958 209.853 84.0958C208.229 84.0958 206.744 83.5389 205.584 82.5643C204.052 81.3114 203.031 79.4087 203.031 77.274C203.031 73.515 206.094 70.4521 209.853 70.4521C213.612 70.4521 216.675 73.515 216.675 77.274Z" fill="#B4B7DB"/>
<path d="M212.36 75.4178C212.36 76.81 211.246 77.9238 209.854 77.9238C208.461 77.9238 207.348 76.81 207.348 75.4178C207.348 74.0256 208.461 72.9119 209.854 72.9119C211.246 72.9119 212.36 74.0256 212.36 75.4178Z" fill="#E4E6FE"/>
<path d="M214.123 82.2394C214.123 82.3322 214.123 82.4715 214.123 82.5643C212.963 83.4924 211.478 84.0957 209.853 84.0957C208.229 84.0957 206.744 83.5388 205.584 82.5643C205.584 82.4715 205.584 82.3322 205.584 82.2394C205.584 79.8727 207.487 77.9236 209.9 77.9236C212.313 77.9236 214.123 79.8727 214.123 82.2394Z" fill="#E4E6FE"/>
<path d="M263.5 73.283H221.826V73.8862H263.5V73.283Z" fill="white"/>
<path d="M263.5 76.9951H221.826V77.5984H263.5V76.9951Z" fill="#FFFFFD"/>
<path d="M245.772 80.6614H221.826V81.2647H245.772V80.6614Z" fill="#FFFFFD"/>
<path d="M68.775 139.274H3.29489C1.48502 139.274 0 137.789 0 135.979V119.597C0 117.788 1.48502 116.302 3.29489 116.302H68.775C70.5849 116.302 72.0699 117.788 72.0699 119.597V135.979C72.0699 137.789 70.5849 139.274 68.775 139.274Z" fill="#E4E6FE"/>
<path d="M19.1202 127.812C19.1202 129.946 18.1456 131.895 16.5678 133.102C15.4076 134.03 13.9226 134.633 12.2984 134.633C10.6741 134.633 9.18911 134.077 8.02894 133.102C6.49751 131.849 5.47656 129.946 5.47656 127.812C5.47656 124.053 8.53941 120.99 12.2984 120.99C16.0573 120.943 19.1202 124.006 19.1202 127.812Z" fill="#B4B7DB"/>
<path d="M12.2989 128.415C13.683 128.415 14.8049 127.293 14.8049 125.909C14.8049 124.525 13.683 123.403 12.2989 123.403C10.9149 123.403 9.79297 124.525 9.79297 125.909C9.79297 127.293 10.9149 128.415 12.2989 128.415Z" fill="#E4E6FE"/>
<path d="M16.615 132.778C16.615 132.87 16.615 133.01 16.615 133.102C15.4549 134.03 13.9698 134.634 12.3456 134.634C10.7214 134.634 9.23634 134.077 8.07617 133.102C8.07617 133.01 8.07617 132.87 8.07617 132.778C8.07617 130.411 9.97885 128.462 12.392 128.462C14.6659 128.462 16.615 130.364 16.615 132.778Z" fill="#E4E6FE"/>
<path d="M65.9449 123.82H24.2715V124.424H65.9449V123.82Z" fill="#FFFFFD"/>
<path d="M65.9449 127.486H24.2715V128.09H65.9449V127.486Z" fill="#FFFFFD"/>
<path d="M48.2174 131.199H24.2715V131.802H48.2174V131.199Z" fill="#FFFFFD"/>
<path d="M233.566 114.168H218.066V137.418H233.566V114.168Z" fill="#FFFFFD"/>
<path d="M235.47 106.093H216.211V114.168H235.47V106.093Z" fill="#2BA7D5"/>
<path d="M230.968 120.897H220.666V131.199H230.968V120.897Z" fill="#2BA7D5"/>
<path d="M218.066 114.168V115.978L226.837 119.272V137.464H231.014V114.168H218.066Z" fill="#E4E6FE"/>
<path d="M220.805 138.207C220.805 139.274 219.923 140.156 218.856 140.156H215.004C213.936 140.156 213.055 139.274 213.055 138.207C213.055 137.14 213.936 136.258 215.004 136.258H218.856C219.923 136.258 220.805 137.093 220.805 138.207Z" fill="#FFFFFD"/>
<path d="M220.805 138.207C220.805 139.274 219.923 140.156 218.856 140.156H216.953V136.258H218.902C219.923 136.258 220.805 137.093 220.805 138.207Z" fill="#2BA7D5"/>
<path d="M239.832 138.207C239.832 139.274 238.95 140.156 237.883 140.156H234.031C232.964 140.156 232.082 139.274 232.082 138.207C232.082 137.139 232.964 136.258 234.031 136.258H237.883C238.95 136.258 239.832 137.093 239.832 138.207Z" fill="#FFFFFD"/>
<path d="M244.195 138.996C243.452 139.738 242.199 139.738 241.41 138.996L238.672 136.258C237.93 135.515 237.93 134.262 238.672 133.52C239.415 132.777 240.668 132.777 241.457 133.52L244.195 136.258C244.983 137 244.983 138.207 244.195 138.996Z" fill="#FFFFFD"/>
<path d="M196.533 18.7088V25.0202H193.702V21.7717C193.702 21.3076 193.331 20.9828 192.913 20.9828H184.653C184.189 20.9828 183.864 21.354 183.864 21.7717V25.0202H181.033V18.7088C181.033 18.2448 181.404 17.9199 181.822 17.9199H195.744C196.208 17.9199 196.533 18.2448 196.533 18.7088Z" fill="#2BA7D5"/>
<path d="M207.532 26.4122V46.7848C207.532 48.409 206.187 49.7548 204.562 49.7548H173.052C171.428 49.7548 170.082 48.409 170.082 46.7848V26.4122C170.082 24.7879 171.428 23.4421 173.052 23.4421H204.562C206.187 23.4421 207.532 24.7879 207.532 26.4122Z" fill="#2BA7D5"/>
<path d="M195.282 35.7402V37.5037C195.282 37.8749 195.003 38.1534 194.632 38.1534H190.966C190.594 38.1534 190.316 38.4318 190.316 38.8031V42.4228C190.316 42.7941 190.038 43.0725 189.666 43.0725H187.903C187.532 43.0725 187.253 42.7941 187.253 42.4228V38.8031C187.253 38.4318 186.975 38.1534 186.603 38.1534H182.984C182.612 38.1534 182.334 37.8749 182.334 37.5037V35.7402C182.334 35.369 182.612 35.0905 182.984 35.0905H186.603C186.975 35.0905 187.253 34.8121 187.253 34.4408V30.8211C187.253 30.4498 187.532 30.1714 187.903 30.1714H189.666C190.038 30.1714 190.316 30.4498 190.316 30.8211V34.4408C190.316 34.8121 190.594 35.0905 190.966 35.0905H194.585C195.003 35.0905 195.282 35.369 195.282 35.7402Z" fill="#FFFFFD"/>
<path d="M160.197 62.3775H188.784V53.7922" stroke="#E4E6FE" stroke-miterlimit="10" stroke-linecap="round" stroke-linejoin="round" stroke-dasharray="2 2"/>
<path d="M188.784 54.4419C189.579 54.4419 190.223 53.7978 190.223 53.0033C190.223 52.2088 189.579 51.5647 188.784 51.5647C187.99 51.5647 187.346 52.2088 187.346 53.0033C187.346 53.7978 187.99 54.4419 188.784 54.4419Z" fill="#E4E6FE"/>
<path d="M193.332 106.975V121.639H214.354" stroke="#E4E6FE" stroke-miterlimit="10" stroke-linecap="round" stroke-linejoin="round" stroke-dasharray="2 2"/>
<path d="M215.003 123.078C215.798 123.078 216.442 122.434 216.442 121.639C216.442 120.845 215.798 120.2 215.003 120.2C214.209 120.2 213.564 120.845 213.564 121.639C213.564 122.434 214.209 123.078 215.003 123.078Z" fill="#E4E6FE"/>
<path d="M78.3354 59.2683H56.0137V75.6035" stroke="#E4E6FE" stroke-miterlimit="10" stroke-linecap="round" stroke-linejoin="round" stroke-dasharray="2 2"/>
<path d="M56.0128 77.6917C56.8073 77.6917 57.4514 77.0476 57.4514 76.2531C57.4514 75.4585 56.8073 74.8145 56.0128 74.8145C55.2183 74.8145 54.5742 75.4585 54.5742 76.2531C54.5742 77.0476 55.2183 77.6917 56.0128 77.6917Z" fill="#E4E6FE"/>
<defs>
<linearGradient id="paint0_linear" x1="129.146" y1="25.5657" x2="128.847" y2="30.2016" gradientUnits="userSpaceOnUse">
<stop stop-color="#B8835A" stop-opacity="0"/>
<stop offset="1" stop-color="#B8835A"/>
</linearGradient>
</defs>
</svg>
